<svg id="euCKp3vjAQZ1" xmlns="http://www.w3.org/2000/svg" xmlns:xlink="http://www.w3.org/1999/xlink" viewBox="0 0 500 500" shape-rendering="geometricPrecision" text-rendering="geometricPrecision" project-id="81390cfee7734f8eba8c11f8eaa49820" export-id="72ee054e07a140cbb41aa2a3765492b0" cached="false"><rect width="400" height="400" rx="69" ry="69" transform="translate(50 50)" fill="#d8d8d8" stroke="#000" stroke-width="25"/><path d="M101.436715,362.1434L80.721816,440.34237l14.293998,9.657629l316.765212-.000001L450,390.555206l1.120445-293.353873v28.905551L364.79227,97.201333L370.015811,362.1434l-17.243917,10.05793L101.436715,362.1434Z" transform="translate(.000006 0.000009)" fill="#b8b5b5"/><path d="M325.33103,372.201337l39.461246,82.149285l59.190733-31.361717l15.605429-60.845498-67.357082-36.907625-46.900326,46.965555Z" transform="translate(9.590107 0.000002)" fill="#bfbfbf"/><rect width="400" height="400" rx="69" ry="69" transform="translate(50 50)" fill="none" stroke="#000" stroke-width="25"/><rect width="300" height="300" rx="37" ry="37" transform="translate(87.514745 86.48552)" fill="#fff" stroke-width="20"/><ellipse rx="29.971601" ry="29.971601" transform="matrix(1.418009 0 0 1.418009 174.899799 204.5)" stroke-width="0"/><ellipse rx="34.5" ry="34.5" transform="translate(300.421137 216.701337)" stroke-width="0"/><path d="M182.411274,299.089659c0,0,16.699216,19.053406,50.10454,19.053406s42.780812-19.053406,42.780812-19.053406" transform="translate(0-18)" fill="none" stroke="#000" stroke-width="23" stroke-linecap="round"/></svg>
